<svg width="376" height="376" viewBox="0 0 376 376" fill="none" xmlns="http://www.w3.org/2000/svg">
<g clip-path="url(#clip0_101_38)">
<rect width="376" height="376" fill="#28293F"/>
<g opacity="0.5">
<path fill-rule="evenodd" clip-rule="evenodd" d="M376.163 243V340.674H278.488L376.163 243ZM376.163 340.674V291.837H425L376.163 340.674ZM358.721 340.674V305.791L323.837 340.674H358.721Z" fill="url(#paint0_linear_101_38)"/>
<path fill-rule="evenodd" clip-rule="evenodd" d="M323.837 438.349V340.674H341.279V375.558L376.163 340.674H421.512L323.837 438.349ZM323.837 340.674V389.512H275L323.837 340.674Z" fill="url(#paint1_linear_101_38)"/>
</g>
<path d="M132.355 202H126.77V179.598H118.352V173.992H140.754V179.598H132.355V202ZM166.033 194.441C166.033 195.535 165.824 196.57 165.408 197.547C164.991 198.51 164.418 199.35 163.689 200.066C162.973 200.783 162.127 201.349 161.15 201.766C160.186 202.182 159.151 202.391 158.045 202.391C157.055 202.391 156.104 202.221 155.193 201.883C154.282 201.531 153.455 201.023 152.712 200.359C151.983 201.023 151.163 201.531 150.252 201.883C149.353 202.221 148.403 202.391 147.4 202.391C146.293 202.391 145.258 202.182 144.295 201.766C143.331 201.349 142.485 200.783 141.755 200.066C141.039 199.35 140.473 198.51 140.056 197.547C139.64 196.57 139.431 195.535 139.431 194.441V181.121H144.763V194.441C144.763 194.806 144.828 195.151 144.959 195.477C145.102 195.789 145.291 196.069 145.525 196.316C145.772 196.551 146.052 196.74 146.365 196.883C146.69 197.013 147.035 197.078 147.4 197.078C147.765 197.078 148.11 197.013 148.435 196.883C148.761 196.74 149.047 196.551 149.295 196.316C149.542 196.069 149.731 195.789 149.861 195.477C150.004 195.151 150.076 194.806 150.076 194.441V181.121H155.388V194.441C155.388 194.806 155.46 195.151 155.603 195.477C155.746 195.789 155.935 196.069 156.17 196.316C156.417 196.551 156.697 196.74 157.009 196.883C157.335 197.013 157.68 197.078 158.045 197.078C158.409 197.078 158.754 197.013 159.08 196.883C159.405 196.74 159.685 196.551 159.92 196.316C160.167 196.069 160.362 195.789 160.505 195.477C160.649 195.151 160.72 194.806 160.72 194.441V181.121H166.033V194.441ZM175.589 175.398C175.589 175.893 175.491 176.355 175.296 176.785C175.114 177.215 174.86 177.592 174.534 177.918C174.209 178.23 173.825 178.484 173.382 178.68C172.952 178.862 172.49 178.953 171.995 178.953C171.501 178.953 171.032 178.862 170.589 178.68C170.159 178.484 169.782 178.23 169.456 177.918C169.144 177.592 168.89 177.215 168.695 176.785C168.512 176.355 168.421 175.893 168.421 175.398C168.421 174.917 168.512 174.461 168.695 174.031C168.89 173.589 169.144 173.211 169.456 172.898C169.782 172.573 170.159 172.319 170.589 172.137C171.032 171.941 171.501 171.844 171.995 171.844C172.49 171.844 172.952 171.941 173.382 172.137C173.825 172.319 174.209 172.573 174.534 172.898C174.86 173.211 175.114 173.589 175.296 174.031C175.491 174.461 175.589 174.917 175.589 175.398ZM174.671 202H169.3V181.082H174.671V202ZM183.485 202H178.153V181.082H179.442L181.2 183.113C182.059 182.332 183.029 181.733 184.11 181.316C185.204 180.887 186.343 180.672 187.528 180.672C188.804 180.672 190.009 180.919 191.141 181.414C192.274 181.896 193.264 182.566 194.11 183.426C194.957 184.272 195.621 185.268 196.102 186.414C196.597 187.547 196.845 188.758 196.845 190.047V202H191.513V190.047C191.513 189.5 191.408 188.986 191.2 188.504C190.992 188.009 190.705 187.579 190.341 187.215C189.976 186.85 189.553 186.564 189.071 186.355C188.589 186.147 188.075 186.043 187.528 186.043C186.968 186.043 186.441 186.147 185.946 186.355C185.451 186.564 185.022 186.85 184.657 187.215C184.292 187.579 184.006 188.009 183.798 188.504C183.589 188.986 183.485 189.5 183.485 190.047V202ZM198.979 182.391C198.979 181.232 199.2 180.145 199.643 179.129C200.086 178.113 200.685 177.228 201.44 176.473C202.208 175.704 203.1 175.099 204.116 174.656C205.131 174.214 206.218 173.992 207.377 173.992H220.229V179.598H207.377C206.987 179.598 206.622 179.669 206.284 179.812C205.945 179.956 205.646 180.158 205.385 180.418C205.138 180.665 204.942 180.958 204.799 181.297C204.656 181.635 204.584 182 204.584 182.391C204.584 182.781 204.656 183.152 204.799 183.504C204.942 183.842 205.138 184.142 205.385 184.402C205.646 184.65 205.945 184.845 206.284 184.988C206.622 185.132 206.987 185.203 207.377 185.203H212.983C214.142 185.203 215.229 185.424 216.245 185.867C217.273 186.297 218.165 186.896 218.92 187.664C219.689 188.419 220.287 189.311 220.717 190.34C221.16 191.355 221.381 192.443 221.381 193.602C221.381 194.76 221.16 195.848 220.717 196.863C220.287 197.879 219.689 198.771 218.92 199.539C218.165 200.294 217.273 200.893 216.245 201.336C215.229 201.779 214.142 202 212.983 202H200.541V196.395H212.983C213.373 196.395 213.738 196.323 214.077 196.18C214.415 196.036 214.708 195.841 214.955 195.594C215.216 195.333 215.418 195.034 215.561 194.695C215.704 194.357 215.776 193.992 215.776 193.602C215.776 193.211 215.704 192.846 215.561 192.508C215.418 192.169 215.216 191.876 214.955 191.629C214.708 191.368 214.415 191.167 214.077 191.023C213.738 190.88 213.373 190.809 212.983 190.809H207.377C206.218 190.809 205.131 190.587 204.116 190.145C203.1 189.702 202.208 189.103 201.44 188.348C200.685 187.579 200.086 186.688 199.643 185.672C199.2 184.643 198.979 183.549 198.979 182.391ZM229.082 209.969H223.711V181.082H225L227.129 183.602C227.611 183.146 228.138 182.716 228.711 182.312C229.284 181.909 229.876 181.564 230.488 181.277C231.113 180.978 231.758 180.743 232.422 180.574C233.086 180.405 233.757 180.32 234.434 180.32C235.905 180.32 237.285 180.587 238.574 181.121C239.876 181.642 241.009 182.384 241.973 183.348C242.949 184.311 243.717 185.477 244.277 186.844C244.837 188.198 245.117 189.702 245.117 191.355C245.117 193.074 244.837 194.624 244.277 196.004C243.717 197.371 242.949 198.536 241.973 199.5C241.009 200.451 239.876 201.18 238.574 201.688C237.285 202.195 235.905 202.449 234.434 202.449C233.965 202.449 233.496 202.397 233.027 202.293C232.572 202.189 232.116 202.052 231.66 201.883C231.217 201.701 230.775 201.499 230.332 201.277C229.902 201.056 229.486 200.828 229.082 200.594V209.969ZM239.766 191.355C239.766 190.47 239.622 189.676 239.336 188.973C239.062 188.27 238.685 187.677 238.203 187.195C237.721 186.701 237.155 186.323 236.504 186.062C235.853 185.802 235.163 185.672 234.434 185.672C233.704 185.672 233.014 185.802 232.363 186.062C231.725 186.323 231.165 186.701 230.684 187.195C230.202 187.677 229.818 188.27 229.531 188.973C229.258 189.676 229.121 190.47 229.121 191.355C229.121 192.202 229.258 192.977 229.531 193.68C229.818 194.383 230.202 194.982 230.684 195.477C231.165 195.971 231.725 196.355 232.363 196.629C233.014 196.902 233.704 197.039 234.434 197.039C235.163 197.039 235.853 196.902 236.504 196.629C237.155 196.355 237.721 195.971 238.203 195.477C238.685 194.982 239.062 194.383 239.336 193.68C239.622 192.977 239.766 192.202 239.766 191.355ZM267.74 202H266.451L264.38 199.129C263.873 199.585 263.332 200.014 262.759 200.418C262.199 200.809 261.607 201.154 260.982 201.453C260.357 201.74 259.713 201.967 259.048 202.137C258.397 202.306 257.733 202.391 257.056 202.391C255.585 202.391 254.198 202.143 252.896 201.648C251.607 201.154 250.474 200.438 249.498 199.5C248.534 198.549 247.772 197.391 247.213 196.023C246.653 194.656 246.373 193.1 246.373 191.355C246.373 189.728 246.653 188.237 247.213 186.883C247.772 185.516 248.534 184.344 249.498 183.367C250.474 182.391 251.607 181.635 252.896 181.102C254.198 180.555 255.585 180.281 257.056 180.281C257.733 180.281 258.404 180.366 259.068 180.535C259.732 180.704 260.377 180.939 261.002 181.238C261.627 181.538 262.219 181.889 262.779 182.293C263.352 182.697 263.886 183.133 264.38 183.602L266.451 181.121H267.74V202ZM262.369 191.355C262.369 190.626 262.226 189.923 261.939 189.246C261.666 188.556 261.288 187.951 260.806 187.43C260.324 186.896 259.758 186.473 259.107 186.16C258.469 185.835 257.785 185.672 257.056 185.672C256.327 185.672 255.637 185.796 254.986 186.043C254.348 186.29 253.788 186.655 253.306 187.137C252.838 187.618 252.466 188.217 252.193 188.934C251.92 189.637 251.783 190.444 251.783 191.355C251.783 192.267 251.92 193.081 252.193 193.797C252.466 194.5 252.838 195.092 253.306 195.574C253.788 196.056 254.348 196.421 254.986 196.668C255.637 196.915 256.327 197.039 257.056 197.039C257.785 197.039 258.469 196.883 259.107 196.57C259.758 196.245 260.324 195.822 260.806 195.301C261.288 194.767 261.666 194.161 261.939 193.484C262.226 192.794 262.369 192.085 262.369 191.355ZM276.554 202H271.222V181.082H272.511L274.269 183.562C275.128 182.781 276.105 182.182 277.198 181.766C278.292 181.336 279.425 181.121 280.597 181.121H285.304V186.434H280.597C280.037 186.434 279.51 186.538 279.015 186.746C278.52 186.954 278.09 187.241 277.726 187.605C277.361 187.97 277.075 188.4 276.866 188.895C276.658 189.389 276.554 189.917 276.554 190.477V202ZM292.555 202H287.184V172.762H292.555V191.199L300.505 181.121H306.637L299.704 189.832L306.637 202H300.505L296.266 194.402L292.555 199.324V202Z" fill="white"/>
<path fill-rule="evenodd" clip-rule="evenodd" d="M98 160V174H112L98 188H93V178L83 188H70L98 160Z" fill="url(#paint2_linear_101_38)"/>
<path fill-rule="evenodd" clip-rule="evenodd" d="M83 216V202H69L83 188H88V198L98 188H111L83 216Z" fill="url(#paint3_linear_101_38)"/>
</g>
<defs>
<linearGradient id="paint0_linear_101_38" x1="351.744" y1="243" x2="351.744" y2="340.674" gradientUnits="userSpaceOnUse">
<stop stop-color="#E33869"/>
<stop offset="1" stop-color="#F5BF59"/>
</linearGradient>
<linearGradient id="paint1_linear_101_38" x1="348.256" y1="438.349" x2="348.256" y2="340.674" gradientUnits="userSpaceOnUse">
<stop stop-color="#F5BF59"/>
<stop offset="1" stop-color="#E33869"/>
</linearGradient>
<linearGradient id="paint2_linear_101_38" x1="91" y1="160" x2="91" y2="188" gradientUnits="userSpaceOnUse">
<stop stop-color="#E33869"/>
<stop offset="1" stop-color="#F5BF59"/>
</linearGradient>
<linearGradient id="paint3_linear_101_38" x1="90" y1="216" x2="90" y2="188" gradientUnits="userSpaceOnUse">
<stop stop-color="#F5BF59"/>
<stop offset="1" stop-color="#E33869"/>
</linearGradient>
<clipPath id="clip0_101_38">
<rect width="376" height="376" fill="white"/>
</clipPath>
</defs>
</svg>
