<svg width="238" height="56" viewBox="0 0 238 56" fill="none" xmlns="http://www.w3.org/2000/svg">
<path d="M63.3555 42H57.7695V19.5977H49.3516V13.9922H71.7539V19.5977H63.3555V42Z" fill="#28293F"/>
<path d="M97.0328 34.4414C97.0328 35.5352 96.8245 36.5703 96.4078 37.5469C95.9911 38.5104 95.4182 39.3503 94.6891 40.0664C93.9729 40.7826 93.1266 41.349 92.15 41.7656C91.1865 42.1823 90.1513 42.3906 89.0445 42.3906C88.0549 42.3906 87.1044 42.2214 86.193 41.8828C85.2815 41.5312 84.4547 41.0234 83.7125 40.3594C82.9833 41.0234 82.163 41.5312 81.2516 41.8828C80.3531 42.2214 79.4026 42.3906 78.4 42.3906C77.2932 42.3906 76.2581 42.1823 75.2945 41.7656C74.331 41.349 73.4846 40.7826 72.7555 40.0664C72.0393 39.3503 71.4729 38.5104 71.0562 37.5469C70.6396 36.5703 70.4312 35.5352 70.4312 34.4414V21.1211H75.7633V34.4414C75.7633 34.806 75.8284 35.151 75.9586 35.4766C76.1018 35.7891 76.2906 36.069 76.525 36.3164C76.7724 36.5508 77.0523 36.7396 77.3648 36.8828C77.6904 37.013 78.0354 37.0781 78.4 37.0781C78.7646 37.0781 79.1096 37.013 79.4352 36.8828C79.7607 36.7396 80.0471 36.5508 80.2945 36.3164C80.5419 36.069 80.7307 35.7891 80.8609 35.4766C81.0042 35.151 81.0758 34.806 81.0758 34.4414V21.1211H86.3883V34.4414C86.3883 34.806 86.4599 35.151 86.6031 35.4766C86.7464 35.7891 86.9352 36.069 87.1695 36.3164C87.4169 36.5508 87.6969 36.7396 88.0094 36.8828C88.3349 37.013 88.6799 37.0781 89.0445 37.0781C89.4091 37.0781 89.7542 37.013 90.0797 36.8828C90.4052 36.7396 90.6852 36.5508 90.9195 36.3164C91.1669 36.069 91.3622 35.7891 91.5055 35.4766C91.6487 35.151 91.7203 34.806 91.7203 34.4414V21.1211H97.0328V34.4414Z" fill="#28293F"/>
<path d="M106.589 15.3984C106.589 15.8932 106.491 16.3555 106.296 16.7852C106.114 17.2148 105.86 17.5924 105.534 17.918C105.209 18.2305 104.825 18.4844 104.382 18.6797C103.952 18.862 103.49 18.9531 102.995 18.9531C102.501 18.9531 102.032 18.862 101.589 18.6797C101.159 18.4844 100.782 18.2305 100.456 17.918C100.144 17.5924 99.8898 17.2148 99.6945 16.7852C99.5122 16.3555 99.4211 15.8932 99.4211 15.3984C99.4211 14.9167 99.5122 14.4609 99.6945 14.0312C99.8898 13.5885 100.144 13.2109 100.456 12.8984C100.782 12.5729 101.159 12.319 101.589 12.1367C102.032 11.9414 102.501 11.8438 102.995 11.8438C103.49 11.8438 103.952 11.9414 104.382 12.1367C104.825 12.319 105.209 12.5729 105.534 12.8984C105.86 13.2109 106.114 13.5885 106.296 14.0312C106.491 14.4609 106.589 14.9167 106.589 15.3984ZM105.671 42H100.3V21.082H105.671V42Z" fill="#28293F"/>
<path d="M114.485 42H109.153V21.082H110.442L112.2 23.1133C113.059 22.332 114.029 21.7331 115.11 21.3164C116.204 20.8867 117.343 20.6719 118.528 20.6719C119.804 20.6719 121.009 20.9193 122.141 21.4141C123.274 21.8958 124.264 22.5664 125.11 23.4258C125.957 24.2721 126.621 25.2682 127.102 26.4141C127.597 27.5469 127.845 28.7578 127.845 30.0469V42H122.512V30.0469C122.512 29.5 122.408 28.9857 122.2 28.5039C121.992 28.0091 121.705 27.5794 121.341 27.2148C120.976 26.8503 120.553 26.5638 120.071 26.3555C119.589 26.1471 119.075 26.043 118.528 26.043C117.968 26.043 117.441 26.1471 116.946 26.3555C116.451 26.5638 116.022 26.8503 115.657 27.2148C115.292 27.5794 115.006 28.0091 114.798 28.5039C114.589 28.9857 114.485 29.5 114.485 30.0469V42Z" fill="#28293F"/>
<path d="M129.979 22.3906C129.979 21.2318 130.2 20.1445 130.643 19.1289C131.086 18.1133 131.685 17.2279 132.44 16.4727C133.208 15.7044 134.1 15.099 135.116 14.6562C136.131 14.2135 137.218 13.9922 138.377 13.9922H151.229V19.5977H138.377C137.987 19.5977 137.622 19.6693 137.284 19.8125C136.945 19.9557 136.646 20.1576 136.385 20.418C136.138 20.6654 135.942 20.9583 135.799 21.2969C135.656 21.6354 135.584 22 135.584 22.3906C135.584 22.7812 135.656 23.1523 135.799 23.5039C135.942 23.8424 136.138 24.1419 136.385 24.4023C136.646 24.6497 136.945 24.8451 137.284 24.9883C137.622 25.1315 137.987 25.2031 138.377 25.2031H143.983C145.142 25.2031 146.229 25.4245 147.245 25.8672C148.273 26.2969 149.165 26.8958 149.92 27.6641C150.689 28.4193 151.287 29.3112 151.717 30.3398C152.16 31.3555 152.381 32.4427 152.381 33.6016C152.381 34.7604 152.16 35.8477 151.717 36.8633C151.287 37.8789 150.689 38.7708 149.92 39.5391C149.165 40.2943 148.273 40.8932 147.245 41.3359C146.229 41.7786 145.142 42 143.983 42H131.541V36.3945H143.983C144.373 36.3945 144.738 36.3229 145.077 36.1797C145.415 36.0365 145.708 35.8411 145.955 35.5938C146.216 35.3333 146.418 35.0339 146.561 34.6953C146.704 34.3568 146.776 33.9922 146.776 33.6016C146.776 33.2109 146.704 32.8464 146.561 32.5078C146.418 32.1693 146.216 31.8763 145.955 31.6289C145.708 31.3685 145.415 31.1667 145.077 31.0234C144.738 30.8802 144.373 30.8086 143.983 30.8086H138.377C137.218 30.8086 136.131 30.5872 135.116 30.1445C134.1 29.7018 133.208 29.1029 132.44 28.3477C131.685 27.5794 131.086 26.6875 130.643 25.6719C130.2 24.6432 129.979 23.5495 129.979 22.3906Z" fill="#28293F"/>
<path d="M160.082 49.9688H154.711V21.082H156L158.129 23.6016C158.611 23.1458 159.138 22.7161 159.711 22.3125C160.284 21.9089 160.876 21.5638 161.488 21.2773C162.113 20.9779 162.758 20.7435 163.422 20.5742C164.086 20.4049 164.757 20.3203 165.434 20.3203C166.905 20.3203 168.285 20.5872 169.574 21.1211C170.876 21.6419 172.009 22.3841 172.973 23.3477C173.949 24.3112 174.717 25.4766 175.277 26.8438C175.837 28.1979 176.117 29.7018 176.117 31.3555C176.117 33.0742 175.837 34.6237 175.277 36.0039C174.717 37.3711 173.949 38.5365 172.973 39.5C172.009 40.4505 170.876 41.1797 169.574 41.6875C168.285 42.1953 166.905 42.4492 165.434 42.4492C164.965 42.4492 164.496 42.3971 164.027 42.293C163.572 42.1888 163.116 42.0521 162.66 41.8828C162.217 41.7005 161.775 41.4987 161.332 41.2773C160.902 41.056 160.486 40.8281 160.082 40.5938V49.9688ZM170.766 31.3555C170.766 30.4701 170.622 29.6758 170.336 28.9727C170.062 28.2695 169.685 27.6771 169.203 27.1953C168.721 26.7005 168.155 26.3229 167.504 26.0625C166.853 25.8021 166.163 25.6719 165.434 25.6719C164.704 25.6719 164.014 25.8021 163.363 26.0625C162.725 26.3229 162.165 26.7005 161.684 27.1953C161.202 27.6771 160.818 28.2695 160.531 28.9727C160.258 29.6758 160.121 30.4701 160.121 31.3555C160.121 32.2018 160.258 32.9766 160.531 33.6797C160.818 34.3828 161.202 34.9818 161.684 35.4766C162.165 35.9714 162.725 36.3555 163.363 36.6289C164.014 36.9023 164.704 37.0391 165.434 37.0391C166.163 37.0391 166.853 36.9023 167.504 36.6289C168.155 36.3555 168.721 35.9714 169.203 35.4766C169.685 34.9818 170.062 34.3828 170.336 33.6797C170.622 32.9766 170.766 32.2018 170.766 31.3555Z" fill="#28293F"/>
<path d="M198.74 42H197.451L195.38 39.1289C194.873 39.5846 194.332 40.0143 193.759 40.418C193.199 40.8086 192.607 41.1536 191.982 41.4531C191.357 41.7396 190.712 41.9674 190.048 42.1367C189.397 42.306 188.733 42.3906 188.056 42.3906C186.585 42.3906 185.198 42.1432 183.896 41.6484C182.607 41.1536 181.474 40.4375 180.498 39.5C179.534 38.5495 178.772 37.3906 178.212 36.0234C177.653 34.6562 177.373 33.1003 177.373 31.3555C177.373 29.7279 177.653 28.237 178.212 26.8828C178.772 25.5156 179.534 24.3438 180.498 23.3672C181.474 22.3906 182.607 21.6354 183.896 21.1016C185.198 20.5547 186.585 20.2812 188.056 20.2812C188.733 20.2812 189.404 20.3659 190.068 20.5352C190.732 20.7044 191.377 20.9388 192.002 21.2383C192.627 21.5378 193.219 21.8893 193.779 22.293C194.352 22.6966 194.886 23.1328 195.38 23.6016L197.451 21.1211H198.74V42ZM193.369 31.3555C193.369 30.6263 193.226 29.9232 192.939 29.2461C192.666 28.556 192.288 27.9505 191.806 27.4297C191.324 26.8958 190.758 26.4727 190.107 26.1602C189.469 25.8346 188.785 25.6719 188.056 25.6719C187.327 25.6719 186.637 25.7956 185.986 26.043C185.348 26.2904 184.788 26.6549 184.306 27.1367C183.837 27.6185 183.466 28.2174 183.193 28.9336C182.92 29.6367 182.783 30.444 182.783 31.3555C182.783 32.2669 182.92 33.0807 183.193 33.7969C183.466 34.5 183.837 35.0924 184.306 35.5742C184.788 36.056 185.348 36.4206 185.986 36.668C186.637 36.9154 187.327 37.0391 188.056 37.0391C188.785 37.0391 189.469 36.8828 190.107 36.5703C190.758 36.2448 191.324 35.8216 191.806 35.3008C192.288 34.7669 192.666 34.1615 192.939 33.4844C193.226 32.7943 193.369 32.0846 193.369 31.3555Z" fill="#28293F"/>
<path d="M207.554 42H202.222V21.082H203.511L205.269 23.5625C206.128 22.7812 207.105 22.1823 208.198 21.7656C209.292 21.3359 210.425 21.1211 211.597 21.1211H216.304V26.4336H211.597C211.037 26.4336 210.51 26.5378 210.015 26.7461C209.52 26.9544 209.09 27.2409 208.726 27.6055C208.361 27.9701 208.075 28.3997 207.866 28.8945C207.658 29.3893 207.554 29.9167 207.554 30.4766V42Z" fill="#28293F"/>
<path d="M223.555 42H218.184V12.7617H223.555V31.1992L231.505 21.1211H237.637L230.704 29.832L237.637 42H231.505L227.266 34.4023L223.555 39.3242V42Z" fill="#28293F"/>
<path fill-rule="evenodd" clip-rule="evenodd" d="M29 0V14H43L29 28H24V18L14 28H1L29 0Z" fill="url(#paint0_linear_101_26)"/>
<path fill-rule="evenodd" clip-rule="evenodd" d="M14 56V42H0L14 28H19V38L29 28H42L14 56Z" fill="url(#paint1_linear_101_26)"/>
<defs>
<linearGradient id="paint0_linear_101_26" x1="22" y1="0" x2="22" y2="28" gradientUnits="userSpaceOnUse">
<stop stop-color="#E33869"/>
<stop offset="1" stop-color="#F5BF59"/>
</linearGradient>
<linearGradient id="paint1_linear_101_26" x1="21" y1="56" x2="21" y2="28" gradientUnits="userSpaceOnUse">
<stop stop-color="#F5BF59"/>
<stop offset="1" stop-color="#E33869"/>
</linearGradient>
</defs>
</svg>
